<svg width="25" height="25" viewBox="0 0 25 25" fill="none" xmlns="http://www.w3.org/2000/svg">
<path d="M13.6016 3.76085C13.9092 3.45337 14.3263 3.28064 14.7612 3.28064C15.1961 3.28064 15.6132 3.45337 15.9207 3.76085L23.3013 11.1414C23.6088 11.449 23.7815 11.8661 23.7815 12.301C23.7815 12.7359 23.6088 13.153 23.3013 13.4606L15.9207 20.8412C15.6114 21.1399 15.1971 21.3052 14.7671 21.3015C14.337 21.2978 13.9257 21.1253 13.6216 20.8212C13.3175 20.5171 13.145 20.1057 13.1413 19.6757C13.1375 19.2456 13.3028 18.8313 13.6016 18.522L18.0414 13.9411H2.4602C2.02521 13.9411 1.60804 13.7683 1.30045 13.4607C0.992867 13.1532 0.820068 12.736 0.820068 12.301C0.820068 11.866 0.992867 11.4488 1.30045 11.1413C1.60804 10.8337 2.02521 10.6609 2.4602 10.6609H18.0414L13.6016 6.07999C13.2941 5.77242 13.1214 5.35532 13.1214 4.92042C13.1214 4.48552 13.2941 4.06842 13.6016 3.76085Z" fill="white"/>
</svg>
