<svg width="24" height="25" viewBox="0 0 24 25" fill="none" xmlns="http://www.w3.org/2000/svg">
<path d="M9.61013 22.5408C9.84143 22.9816 10.186 23.3503 10.6069 23.6073C11.0279 23.8643 11.5095 24 12.0004 24C12.4912 24 12.9728 23.8643 13.3938 23.6073C13.8148 23.3503 14.1593 22.9816 14.3906 22.5408M7.05369 3.08665C8.03202 2.09032 9.27851 1.4118 10.6355 1.1369C11.9926 0.862004 13.3991 1.00308 14.6774 1.54228C15.9557 2.08149 17.0483 2.9946 17.8169 4.16615C18.5856 5.3377 18.9959 6.71506 18.9958 8.12405C18.9958 9.2353 19.1765 10.2785 19.4475 11.3474C19.5233 11.5903 19.6058 11.819 19.695 12.0336C20.1141 13.0363 21.2686 13.3804 22.1304 14.028C23.4149 14.9976 23.1674 17.071 22.0978 17.8769C22.0978 17.8769 20.3725 19.3984 12.0004 19.3984C3.62824 19.3984 1.90286 17.8769 1.90286 17.8769C0.833315 17.071 0.583994 14.9976 1.87034 14.028C2.73213 13.3804 3.88659 13.0363 4.30574 12.0336C4.72308 11.0328 5.00492 9.75228 5.00492 8.12405C5.00492 6.23457 5.74204 4.42235 7.05369 3.08665Z" fill="#000286"/>
<path d="M9.61013 22.5408C9.84143 22.9816 10.186 23.3503 10.6069 23.6073C11.0279 23.8643 11.5095 24 12.0004 24C12.4912 24 12.9728 23.8643 13.3938 23.6073C13.8148 23.3503 14.1593 22.9816 14.3906 22.5408M7.05369 3.08665C8.03202 2.09032 9.27851 1.4118 10.6355 1.1369C11.9926 0.862004 13.3991 1.00308 14.6774 1.54228C15.9557 2.08149 17.0483 2.9946 17.8169 4.16615C18.5856 5.3377 18.9959 6.71506 18.9958 8.12405C18.9958 9.2353 19.1765 10.2785 19.4475 11.3474C19.5233 11.5903 19.6058 11.819 19.695 12.0336C20.1141 13.0363 21.2686 13.3804 22.1304 14.028C23.4149 14.9976 23.1674 17.071 22.0978 17.8769C22.0978 17.8769 20.3725 19.3984 12.0004 19.3984C3.62824 19.3984 1.90286 17.8769 1.90286 17.8769C0.833315 17.071 0.583994 14.9976 1.87034 14.028C2.73213 13.3804 3.88659 13.0363 4.30574 12.0336C4.72308 11.0328 5.00492 9.75228 5.00492 8.12405C5.00492 6.23457 5.74204 4.42235 7.05369 3.08665Z" stroke="#000286" stroke-width="2" stroke-linecap="round" stroke-linejoin="round"/>
</svg>
