<svg width="58" height="58" viewBox="0 0 58 58" fill="none" xmlns="http://www.w3.org/2000/svg">
<path d="M50.7089 30.3243C50.9777 25.9193 49.9002 21.5368 47.6193 17.7587C45.3385 13.9806 41.9624 10.9857 37.9393 9.17178C33.9161 7.35783 29.4364 6.81062 25.0949 7.60284C20.7534 8.39506 16.7556 10.4892 13.6325 13.6072C10.5093 16.7252 8.40852 20.7195 7.6091 25.0597C6.80968 29.3998 7.34946 33.8805 9.15674 37.9066C10.964 41.9327 13.9533 45.3139 17.7276 47.6009C21.5019 49.888 25.8827 50.9728 30.2881 50.7113M45.9166 53.1666V38.6666M45.9166 38.6666L53.1667 45.9166M45.9166 38.6666L38.6666 45.9166" stroke="white" stroke-width="4" stroke-linecap="round" stroke-linejoin="round"/>
<path d="M29 16.9166V29L35.0417 35.0416" stroke="white" stroke-width="4" stroke-linecap="round" stroke-linejoin="round"/>
</svg>
