<svg width="34" height="34" viewBox="0 0 34 34" fill="none" xmlns="http://www.w3.org/2000/svg">
<path d="M18.4167 11.3333V5.66667C18.4167 5.26528 18.5527 4.92906 18.8247 4.658C19.0967 4.38694 19.4329 4.25094 19.8333 4.25H28.3333C28.7347 4.25 29.0714 4.386 29.3434 4.658C29.6154 4.93 29.7509 5.26622 29.75 5.66667V11.3333C29.75 11.7347 29.614 12.0714 29.342 12.3434C29.07 12.6154 28.7338 12.7509 28.3333 12.75H19.8333C19.4319 12.75 19.0957 12.614 18.8247 12.342C18.5536 12.07 18.4176 11.7338 18.4167 11.3333ZM4.25 17V5.66667C4.25 5.26528 4.386 4.92906 4.658 4.658C4.93 4.38694 5.26622 4.25094 5.66667 4.25H14.1667C14.5681 4.25 14.9047 4.386 15.1768 4.658C15.4488 4.93 15.5843 5.26622 15.5833 5.66667V17C15.5833 17.4014 15.4473 17.7381 15.1753 18.0101C14.9033 18.2821 14.5671 18.4176 14.1667 18.4167H5.66667C5.26528 18.4167 4.92906 18.2807 4.658 18.0087C4.38694 17.7367 4.25094 17.4004 4.25 17ZM18.4167 28.3333V17C18.4167 16.5986 18.5527 16.2624 18.8247 15.9913C19.0967 15.7203 19.4329 15.5843 19.8333 15.5833H28.3333C28.7347 15.5833 29.0714 15.7193 29.3434 15.9913C29.6154 16.2633 29.7509 16.5996 29.75 17V28.3333C29.75 28.7347 29.614 29.0714 29.342 29.3434C29.07 29.6154 28.7338 29.7509 28.3333 29.75H19.8333C19.4319 29.75 19.0957 29.614 18.8247 29.342C18.5536 29.07 18.4176 28.7338 18.4167 28.3333ZM4.25 28.3333V22.6667C4.25 22.2653 4.386 21.9291 4.658 21.658C4.93 21.3869 5.26622 21.2509 5.66667 21.25H14.1667C14.5681 21.25 14.9047 21.386 15.1768 21.658C15.4488 21.93 15.5843 22.2662 15.5833 22.6667V28.3333C15.5833 28.7347 15.4473 29.0714 15.1753 29.3434C14.9033 29.6154 14.5671 29.7509 14.1667 29.75H5.66667C5.26528 29.75 4.92906 29.614 4.658 29.342C4.38694 29.07 4.25094 28.7338 4.25 28.3333ZM7.08333 15.5833H12.75V7.08333H7.08333V15.5833ZM21.25 26.9167H26.9167V18.4167H21.25V26.9167ZM21.25 9.91667H26.9167V7.08333H21.25V9.91667ZM7.08333 26.9167H12.75V24.0833H7.08333V26.9167Z" fill="white"/>
</svg>
