<svg width="36" height="50" viewBox="0 0 36 50" fill="none" xmlns="http://www.w3.org/2000/svg">
<path d="M17.9619 0C27.1282 0.000203067 34.5586 7.43137 34.5586 16.5977C34.5584 22.3095 31.673 27.3471 27.2803 30.333L36 43.3057L29.4004 43.8398L26.4033 49.7705L26.3594 49.8008L17.8613 37.1592L9.7666 49.8594L9.72949 49.8359L6.71387 43.7217L0 43.5537L8.49316 30.2295C4.18491 27.2315 1.36441 22.2442 1.36426 16.5977C1.36428 7.4313 8.79558 8.63196e-05 17.9619 0ZM18.0322 3.22168C11.2251 3.22168 5.70703 8.73974 5.70703 15.5469C5.70712 22.3539 11.2251 27.8721 18.0322 27.8721C24.8392 27.8719 30.3573 22.3538 30.3574 15.5469C30.3574 8.73983 24.8392 3.22183 18.0322 3.22168ZM18.1016 5.04199C23.9418 5.04199 28.6767 9.77699 28.6768 15.6172C28.6765 21.4572 23.9416 26.1914 18.1016 26.1914C12.2616 26.1912 7.52756 21.4571 7.52734 15.6172C7.52736 9.77711 12.2615 5.04217 18.1016 5.04199ZM16.4277 13.0596H11.2383L15.4365 16.1104L13.833 21.0459L18.0322 17.9951L22.2305 21.0459L20.627 16.1104L24.8252 13.0596H19.6357L18.0322 8.12402L16.4277 13.0596Z" fill="white"/>
</svg>
