<svg width="50" height="46" viewBox="0 0 50 46" fill="none" xmlns="http://www.w3.org/2000/svg">
<rect width="50" height="46" rx="14" fill="#000151"/>
<path d="M28.0425 15.9149H36.3084V18.2766H28.0425V15.9149ZM28.0425 21.8191H36.3084V24.1809H28.0425V21.8191ZM28.0425 27.7234H36.3084V30.0851H28.0425V27.7234ZM12.6914 15.9149H20.9574V18.2766H12.6914V15.9149ZM12.6914 21.8191H20.9574V24.1809H12.6914V21.8191ZM12.6914 27.7234H20.9574V30.0851H12.6914V27.7234Z" fill="white"/>
<path d="M38.6702 10.0106H10.3297C9.70336 10.0106 9.10265 10.2594 8.65974 10.7023C8.21684 11.1453 7.96802 11.746 7.96802 12.3723V33.6277C7.96802 34.254 8.21684 34.8547 8.65974 35.2976C9.10265 35.7405 9.70336 35.9894 10.3297 35.9894H38.6702C39.2965 35.9894 39.8972 35.7405 40.3401 35.2976C40.7831 34.8547 41.0319 34.254 41.0319 33.6277V12.3723C41.0319 11.746 40.7831 11.1453 40.3401 10.7023C39.8972 10.2594 39.2965 10.0106 38.6702 10.0106ZM10.3297 12.3723H23.3191V33.6277H10.3297V12.3723ZM25.6808 33.6277V12.3723H38.6702V33.6277H25.6808Z" fill="white"/>
</svg>
