<svg width="23" height="23" viewBox="0 0 23 23" fill="none" xmlns="http://www.w3.org/2000/svg">
<path d="M11.3828 21.9941C11.0945 21.9673 10.8133 21.8415 10.5908 21.6162L10.5859 21.6113L1.38867 12.4131L1.38379 12.4082C1.15851 12.1857 1.03179 11.9045 1.00488 11.6162L11.3828 21.9941ZM21.9941 11.6162C21.9672 11.9045 21.8415 12.1857 21.6162 12.4082L21.6113 12.4131L12.4141 21.6113L12.4092 21.6162C12.1864 21.8418 11.9048 21.9675 11.6162 21.9941L12.207 21.4043L21.4053 12.2061L21.9941 11.6162ZM10.793 1.59277L1.00488 11.3809C1.03181 11.0926 1.15851 10.8113 1.38379 10.5889L1.38867 10.584L10.5771 1.39453C10.8262 1.15154 11.1049 1.03242 11.3789 1.00586L10.793 1.59277ZM11.6201 1.00586C11.855 1.02844 12.0933 1.11865 12.3135 1.29688L12.4229 1.39453L21.6113 10.584L21.6162 10.5889C21.8415 10.8113 21.9672 11.0926 21.9941 11.3809L21.4053 10.791L11.6201 1.00586Z" fill="#006AFF" stroke="#006AFF" stroke-width="2"/>
</svg>
